<svg xmlns="http://www.w3.org/2000/svg" width="64" height="64" viewBox="0 0 64 64" role="img" aria-label="unknown node">
  <defs>
    <linearGradient id="bg2" x1="0" y1="0" x2="0" y2="1">
      <stop offset="0%" stop-color="#1c2838"/>
      <stop offset="100%" stop-color="#101721"/>
    </linearGradient>
  </defs>
  <circle cx="32" cy="32" r="29" fill="url(#bg2)" stroke="#7aa7d1" stroke-width="2"/>
  <path d="M24 24c0-5 4-9 9-9h2c5 0 9 4 9 9 0 3-1 5-4 7l-4 3c-1 1-2 2-2 4v2h-4v-2c0-3 1-5 4-7l4-3c1-1 2-2 2-4 0-3-2-5-5-5h-2c-3 0-5 2-5 5v1h-4z" fill="#d8ecff"/>
  <circle cx="32" cy="48" r="3" fill="#d8ecff"/>
</svg>
