<?xml version="1.0" encoding="UTF-8"?>
<svg xmlns="http://www.w3.org/2000/svg" width="256" height="256" viewBox="0 0 256 256" role="img" aria-label="fireball">
  <defs>
    <linearGradient id="bg" x1="0" y1="0" x2="1" y2="1">
      <stop offset="0%" stop-color="#130504"/>
      <stop offset="100%" stop-color="#31100b"/>
    </linearGradient>
    <radialGradient id="vignette" cx="50%" cy="50%" r="62%">
      <stop offset="60%" stop-color="#000" stop-opacity="0"/>
      <stop offset="100%" stop-color="#000" stop-opacity="0.55"/>
    </radialGradient>
    <filter id="grain" x="-20%" y="-20%" width="140%" height="140%">
      <feTurbulence type="fractalNoise" baseFrequency="0.95" numOctaves="2" seed="12" result="n"/>
      <feColorMatrix in="n" type="saturate" values="0"/>
      <feComponentTransfer>
        <feFuncA type="table" tableValues="0 0.07"/>
      </feComponentTransfer>
    </filter>
    <filter id="glow" x="-30%" y="-30%" width="160%" height="160%">
      <feGaussianBlur stdDeviation="3" result="b"/>
      <feMerge><feMergeNode in="b"/><feMergeNode in="SourceGraphic"/></feMerge>
    </filter>
  </defs>
  <rect x="10" y="10" width="236" height="236" rx="22" fill="url(#bg)"/>
  <rect x="10" y="10" width="236" height="236" rx="22" fill="url(#vignette)"/>
  <rect x="10" y="10" width="236" height="236" rx="22" filter="url(#grain)"/>
  <rect x="14" y="14" width="228" height="228" rx="18" fill="none" stroke="#b44a2b" stroke-width="2"/>
  <circle cx="128" cy="128" r="88" fill="none" stroke="#b44a2b" stroke-width="2.4" stroke-opacity="0.9"/>
  <circle cx="128" cy="128" r="72" fill="none" stroke="#b44a2b" stroke-width="1.7" stroke-opacity="0.6" stroke-dasharray="4 9"/>
  <path d="M128 40V52M216 128H204M128 216V204M40 128H52M66 66L74 74M190 66L182 74M66 190L74 182M190 190L182 182" stroke="#ff8d62" stroke-width="3" stroke-linecap="round"/>
  <g filter="url(#glow)"><path d="M128 66C154 94 166 120 152 148C139 173 113 182 96 164C78 146 84 120 102 96C110 84 118 74 128 66Z" fill="#ffd4b0" fill-opacity="0.25"/><path stroke="#ffd4b0" stroke-width="8" stroke-linecap="round" stroke-linejoin="round" fill="none" d="M128 72C150 96 158 118 148 140C138 162 116 170 102 156C88 142 92 120 108 100"/></g>
  <circle cx="212" cy="44" r="18" fill="#05080e" fill-opacity="0.78" stroke="#ff8d62" stroke-width="2"/>
  <text x="212" y="50" text-anchor="middle" font-size="20" font-family="Georgia, serif" fill="#ffd4b0" font-weight="700">1</text>
</svg>
