<?xml version="1.0" encoding="UTF-8"?>
<svg xmlns="http://www.w3.org/2000/svg" width="256" height="256" viewBox="0 0 256 256" role="img" aria-label="freezingVeil">
  <defs>
    <linearGradient id="bg" x1="0" y1="0" x2="1" y2="1">
      <stop offset="0%" stop-color="#050a14"/>
      <stop offset="100%" stop-color="#0a1c34"/>
    </linearGradient>
    <radialGradient id="vignette" cx="50%" cy="50%" r="62%">
      <stop offset="60%" stop-color="#000" stop-opacity="0"/>
      <stop offset="100%" stop-color="#000" stop-opacity="0.55"/>
    </radialGradient>
    <filter id="grain" x="-20%" y="-20%" width="140%" height="140%">
      <feTurbulence type="fractalNoise" baseFrequency="0.95" numOctaves="2" seed="12" result="n"/>
      <feColorMatrix in="n" type="saturate" values="0"/>
      <feComponentTransfer>
        <feFuncA type="table" tableValues="0 0.07"/>
      </feComponentTransfer>
    </filter>
    <filter id="glow" x="-30%" y="-30%" width="160%" height="160%">
      <feGaussianBlur stdDeviation="3" result="b"/>
      <feMerge><feMergeNode in="b"/><feMergeNode in="SourceGraphic"/></feMerge>
    </filter>
  </defs>
  <rect x="10" y="10" width="236" height="236" rx="22" fill="url(#bg)"/>
  <rect x="10" y="10" width="236" height="236" rx="22" fill="url(#vignette)"/>
  <rect x="10" y="10" width="236" height="236" rx="22" filter="url(#grain)"/>
  <rect x="14" y="14" width="228" height="228" rx="18" fill="none" stroke="#2a7fc2" stroke-width="2"/>
  <circle cx="128" cy="128" r="88" fill="none" stroke="#2a7fc2" stroke-width="2.4" stroke-opacity="0.9"/>
  <circle cx="128" cy="128" r="72" fill="none" stroke="#2a7fc2" stroke-width="1.7" stroke-opacity="0.6" stroke-dasharray="4 9"/>
  <path d="M128 40V52M216 128H204M128 216V204M40 128H52M66 66L74 74M190 66L182 74M66 190L74 182M190 190L182 182" stroke="#7fd6ff" stroke-width="3" stroke-linecap="round"/>
  <g filter="url(#glow)"><circle cx="128" cy="128" r="44" stroke="#b8e7ff" stroke-width="8" stroke-linecap="round" stroke-linejoin="round" fill="none"/><path stroke="#b8e7ff" stroke-width="8" stroke-linecap="round" stroke-linejoin="round" fill="none" d="M82 138Q128 90 174 138"/><path stroke="#b8e7ff" stroke-width="8" stroke-linecap="round" stroke-linejoin="round" fill="none" d="M94 164Q128 132 162 164"/></g>
  <circle cx="212" cy="44" r="18" fill="#05080e" fill-opacity="0.78" stroke="#7fd6ff" stroke-width="2"/>
  <text x="212" y="50" text-anchor="middle" font-size="20" font-family="Georgia, serif" fill="#b8e7ff" font-weight="700">2</text>
</svg>
